<?xml version="1.0" standalone="no"?>
<!DOCTYPE svg PUBLIC "-//W3C//DTD SVG 20010904//EN"
 "http://www.w3.org/TR/2001/REC-SVG-20010904/DTD/svg10.dtd">
<svg version="1.0" xmlns="http://www.w3.org/2000/svg"
 width="850.000000pt" height="850.000000pt" viewBox="0 0 850.000000 850.000000"
 preserveAspectRatio="xMidYMid meet">

<g transform="translate(0.000000,850.000000) scale(0.100000,-0.100000)"
 stroke="none">
<path  fill="#007cd2"  d="M7170 7401 c-14 -9 -63 -43 -108 -76 -46 -33 -111 -77 -145 -99 -34
-21 -93 -62 -132 -90 -38 -29 -92 -65 -120 -81 -27 -15 -75 -47 -105 -70 -30
-23 -167 -116 -305 -208 -262 -175 -587 -397 -671 -458 -27 -20 -119 -83 -204
-141 -85 -58 -183 -124 -216 -148 -34 -23 -75 -43 -90 -44 -16 -1 -35 -5 -43
-10 -10 -7 -12 -6 -6 4 8 13 -10 30 -35 30 -9 0 -24 -15 -34 -32 -20 -36 -112
-128 -127 -128 -6 0 -38 -29 -72 -63 -34 -35 -71 -68 -81 -74 -29 -16 -10 -35
27 -28 41 9 126 34 152 46 11 4 56 22 100 40 67 26 221 98 300 141 81 44 109
57 135 63 l29 6 -26 -48 c-15 -26 -45 -73 -68 -103 -33 -45 -127 -180 -170
-245 -7 -11 -6 -18 5 -25 16 -10 19 -7 118 108 30 34 61 62 71 62 9 0 21 10
26 22 9 18 136 96 352 213 23 12 54 32 70 43 15 11 55 33 88 49 33 16 94 51
135 78 79 51 228 142 270 165 14 7 32 17 40 21 8 5 49 26 90 48 68 35 81 47
134 122 84 119 226 307 259 343 16 18 27 42 27 58 0 18 5 28 15 28 16 0 21 35
6 44 -13 9 4 62 19 58 8 -2 11 4 8 16 -3 10 2 29 12 42 15 19 17 20 15 4 -2
-29 -17 -68 -27 -75 -6 -4 -8 -15 -6 -25 2 -12 34 28 97 122 52 76 123 177
158 223 36 45 63 84 61 86 -2 1 -14 -5 -28 -14z m-310 -455 c0 -3 -4 -8 -10
-11 -5 -3 -10 -1 -10 4 0 6 5 11 10 11 6 0 10 -2 10 -4z m-1496 -1150 c-6 -17
-34 -30 -34 -16 0 5 8 14 18 19 22 13 22 13 16 -3z"/>
<path  fill="#007cd2" d="M7340 6756 c-8 -8 -118 -84 -245 -169 -126 -85 -277 -187 -335 -226
-58 -39 -163 -110 -235 -157 -71 -48 -200 -134 -285 -191 -85 -58 -299 -201
-475 -318 -448 -299 -910 -612 -983 -665 -99 -73 -91 -74 128 -25 171 39 195
41 187 22 -3 -7 -21 -60 -40 -117 -20 -58 -81 -235 -137 -395 -56 -159 -134
-387 -175 -505 -40 -118 -100 -291 -133 -385 -34 -93 -84 -237 -112 -320 -95
-277 -142 -371 -206 -414 -36 -25 -246 -71 -325 -71 -79 0 -76 36 39 382 51
152 92 286 92 297 0 31 14 25 33 -14 17 -36 37 -47 37 -20 0 21 71 243 276
863 101 303 186 568 190 587 6 34 6 35 -28 35 -29 0 -575 -67 -1013 -124 -66
-9 -176 -23 -244 -31 -68 -7 -127 -18 -131 -22 -4 -4 -15 -39 -25 -78 -10 -38
-26 -95 -36 -125 -10 -30 -21 -72 -24 -92 l-7 -37 58 -16 c170 -48 224 -67
224 -79 0 -17 -180 -191 -250 -242 -30 -22 -98 -66 -150 -98 -52 -32 -117 -74
-145 -94 -27 -19 -62 -42 -77 -51 -17 -9 -28 -25 -28 -37 0 -12 -6 -37 -14
-55 -34 -84 -36 -80 46 -73 61 5 389 44 521 61 20 3 37 2 37 -1 0 -3 -15 -51
-34 -105 -79 -230 -199 -392 -359 -489 -162 -98 -408 -128 -588 -73 -79 25
-104 49 -122 121 -26 100 6 251 147 700 31 96 117 369 191 605 74 237 155 493
180 571 25 77 45 145 45 151 0 6 -39 1 -98 -13 -53 -13 -103 -24 -109 -24 -19
0 -16 29 11 98 100 256 333 462 591 523 125 29 270 30 346 0 59 -23 111 -69
128 -114 17 -43 13 -119 -9 -188 -10 -34 -17 -65 -15 -69 2 -4 -12 -60 -30
-126 -19 -65 -35 -121 -35 -123 0 -4 84 4 220 19 47 6 157 17 245 26 88 8 180
19 206 24 25 5 56 6 67 3 13 -3 22 -1 22 6 0 13 58 177 91 256 70 169 209 563
209 592 0 16 -148 308 -207 408 -42 71 -76 91 -170 98 -529 42 -509 41 -704
23 -214 -20 -272 -33 -599 -137 -390 -125 -698 -299 -986 -561 -229 -207 -337
-358 -452 -628 -72 -170 -356 -1049 -466 -1440 -124 -444 -128 -463 -133 -665
-4 -155 -2 -194 16 -279 29 -142 91 -263 188 -366 99 -105 169 -157 305 -224
162 -79 270 -114 432 -138 121 -17 170 -19 346 -15 116 4 235 13 275 21 112
23 244 56 284 71 185 69 248 97 336 148 85 50 239 158 280 198 50 47 85 41
158 -31 62 -59 62 -59 47 -87 -9 -15 -25 -33 -37 -38 -12 -6 -30 -21 -40 -32
-29 -34 -241 -173 -788 -518 -121 -76 -276 -175 -345 -220 -69 -45 -143 -92
-165 -105 -81 -48 -840 -543 -854 -556 -31 -29 -2 -21 114 31 66 29 174 76
240 105 66 29 163 72 215 97 100 47 169 78 545 242 127 55 316 139 420 187
105 47 258 115 340 151 83 35 229 98 325 139 96 42 210 91 252 110 43 19 80
34 82 34 3 0 92 39 198 86 106 47 228 99 270 114 88 33 502 202 563 229 22 10
139 57 260 105 121 48 263 105 315 126 52 22 154 62 226 89 72 28 147 57 165
65 19 9 115 47 214 86 99 39 204 82 233 95 29 14 55 25 57 25 11 0 304 126
435 187 41 19 91 41 110 48 19 7 112 47 205 88 686 302 793 352 905 427 30 20
101 61 158 90 56 29 102 58 102 63 0 5 -7 6 -16 3 -9 -3 -60 -17 -113 -31 -88
-23 -221 -60 -536 -151 -66 -19 -174 -47 -240 -64 -66 -16 -169 -45 -230 -64
-60 -19 -195 -58 -300 -86 -104 -28 -233 -65 -285 -82 -52 -16 -159 -45 -238
-64 -79 -19 -153 -39 -165 -44 -71 -29 -727 -201 -739 -194 -3 2 7 41 24 87
92 247 134 365 175 482 38 112 167 466 279 770 147 400 205 567 200 572 -3 4
-50 1 -104 -6 -268 -35 -718 -97 -741 -103 -29 -7 -20 19 11 30 29 11 91 53
182 124 32 25 134 75 236 115 58 22 299 131 341 153 9 5 35 14 59 20 34 9 46
9 65 -4 13 -9 26 -25 30 -36 3 -11 10 -20 15 -20 4 0 74 78 155 173 81 94 178
208 216 252 37 44 128 150 200 235 179 210 239 279 269 309 14 14 70 76 125
136 54 61 114 127 134 148 33 35 41 52 11 23z"/>
<path fill="#FFD700"  d="M5905 6681 c-199 -124 -319 -196 -362 -215 -24 -10 -45 -27 -48 -37
-4 -11 -10 -19 -14 -19 -4 0 -16 -7 -27 -16 -17 -14 -17 -15 -1 -10 10 3 26 0
37 -6 15 -10 24 -7 52 15 18 15 115 85 216 157 101 72 191 137 200 145 9 8 28
23 42 34 44 35 18 22 -95 -48z"/>
<path fill="#FFD700"  d="M875 5658 c4 -11 2 -18 -4 -18 -6 0 -11 -5 -11 -12 0 -8 6 -6 17 5
14 14 15 19 4 29 -10 11 -11 10 -6 -4z"/>
<path fill="#FFD700"  d="M790 5632 c-41 -19 -139 -86 -135 -92 3 -5 -25 -35 -62 -67 -122
-105 -277 -249 -256 -239 6 3 86 61 177 128 91 68 186 135 212 151 25 15 48
36 51 47 3 11 9 21 14 21 5 1 14 2 21 3 6 0 13 13 15 29 4 28 -6 33 -37 19z"/>
<path fill="#FFD700"  d="M6105 2100 c-270 -107 -480 -197 -569 -241 -37 -18 -41 -18 -49 -3
-6 11 -12 13 -16 5 -4 -6 -94 -55 -201 -110 -331 -169 -380 -202 -172 -117
321 132 381 156 391 156 6 0 35 13 64 29 28 16 75 39 102 49 28 11 95 41 150
67 55 26 152 71 215 100 120 56 232 115 215 114 -5 0 -64 -22 -130 -49z"/>
<path fill="#FFD700"  d="M1810 1736 c-30 -18 -107 -63 -170 -100 -63 -37 -144 -86 -180 -108
-147 -91 -221 -129 -241 -123 -10 4 -19 11 -19 16 0 20 -26 7 -99 -49 -42 -33
-96 -72 -119 -87 -40 -26 -42 -30 -23 -37 29 -10 26 -24 -8 -39 -20 -9 -27
-18 -23 -31 2 -10 0 -18 -5 -18 -5 0 -18 -7 -29 -16 -18 -15 -18 -15 4 -11 13
3 35 -1 50 -9 25 -13 28 -13 42 7 41 59 116 123 220 189 193 123 552 361 600
399 82 64 82 67 0 17z"/>
<path fill="#FFD700"  d="M906 1232 c-3 -6 -1 -14 5 -17 14 -9 20 -2 10 14 -6 8 -11 9 -15 3z"/>
<path fill="#FFD700"  d="M856 1183 c-6 -14 -5 -15 5 -6 7 7 10 15 7 18 -3 3 -9 -2 -12 -12z"/>
<path fill="#FFD700"  d="M786 1132 l-39 -27 29 -5 c32 -6 98 21 80 32 -6 5 -7 8 -1 8 6 0 3 5
-5 10 -20 13 -19 13 -64 -18z"/>
<path fill="#FFD700"  d="M723 1089 c-6 -6 -9 -19 -6 -28 4 -12 3 -13 -5 -2 -12 16 -52 -2 -52
-24 0 -7 -5 -17 -12 -21 -7 -5 -8 -3 -2 7 8 14 -3 8 -101 -58 -70 -47 -35 -40
55 11 53 30 75 48 73 60 -1 13 2 15 9 8 12 -12 39 -2 71 26 13 12 15 17 5 24
-17 10 -22 10 -35 -3z"/>
</g>
</svg>
